<mxfile host="Electron" modified="2024-04-08T15:06:57.795Z" agent="Mozilla/5.0 (Macintosh; Intel Mac OS X 10_15_7) AppleWebKit/537.36 (KHTML, like Gecko) draw.io/24.1.0 Chrome/120.0.6099.109 Electron/28.1.0 Safari/537.36" etag="LylM9kVnhSJ9mjVzc24y" version="24.1.0" type="device">
  <diagram name="Page-1" id="zWnMjyUTW1t5Az8JSUf7">
    <mxGraphModel dx="954" dy="674" grid="1" gridSize="10" guides="1" tooltips="1" connect="1" arrows="1" fold="1" page="1" pageScale="1" pageWidth="850" pageHeight="1100" math="0" shadow="0">
      <root>
        <mxCell id="0" />
        <mxCell id="1" parent="0" />
        <mxCell id="coO7UIAVYU41Q1x3tWFK-2" value="" style="rounded=0;whiteSpace=wrap;html=1;" vertex="1" parent="1">
          <mxGeometry x="560" y="160" width="120" height="320" as="geometry" />
        </mxCell>
        <mxCell id="coO7UIAVYU41Q1x3tWFK-3" value="Servo Board" style="text;html=1;align=center;verticalAlign=middle;whiteSpace=wrap;rounded=0;" vertex="1" parent="1">
          <mxGeometry x="560" y="160" width="120" height="30" as="geometry" />
        </mxCell>
        <mxCell id="coO7UIAVYU41Q1x3tWFK-4" value="GND" style="text;html=1;align=center;verticalAlign=middle;whiteSpace=wrap;rounded=0;" vertex="1" parent="1">
          <mxGeometry x="560" y="410" width="40" height="30" as="geometry" />
        </mxCell>
        <mxCell id="coO7UIAVYU41Q1x3tWFK-5" value="RX" style="text;html=1;align=center;verticalAlign=middle;whiteSpace=wrap;rounded=0;" vertex="1" parent="1">
          <mxGeometry x="560" y="370" width="40" height="30" as="geometry" />
        </mxCell>
        <mxCell id="coO7UIAVYU41Q1x3tWFK-6" value="TX" style="text;html=1;align=center;verticalAlign=middle;whiteSpace=wrap;rounded=0;" vertex="1" parent="1">
          <mxGeometry x="560" y="330" width="40" height="30" as="geometry" />
        </mxCell>
        <mxCell id="coO7UIAVYU41Q1x3tWFK-7" value="5V" style="text;html=1;align=center;verticalAlign=middle;whiteSpace=wrap;rounded=0;" vertex="1" parent="1">
          <mxGeometry x="560" y="290" width="40" height="30" as="geometry" />
        </mxCell>
        <mxCell id="coO7UIAVYU41Q1x3tWFK-8" value="" style="rounded=0;whiteSpace=wrap;html=1;" vertex="1" parent="1">
          <mxGeometry x="360" y="160" width="120" height="320" as="geometry" />
        </mxCell>
        <mxCell id="coO7UIAVYU41Q1x3tWFK-9" value="Level Shifter" style="text;html=1;align=center;verticalAlign=middle;whiteSpace=wrap;rounded=0;" vertex="1" parent="1">
          <mxGeometry x="360" y="160" width="120" height="30" as="geometry" />
        </mxCell>
        <mxCell id="coO7UIAVYU41Q1x3tWFK-10" value="5V" style="text;html=1;align=center;verticalAlign=middle;whiteSpace=wrap;rounded=0;" vertex="1" parent="1">
          <mxGeometry x="440" y="210" width="40" height="30" as="geometry" />
        </mxCell>
        <mxCell id="coO7UIAVYU41Q1x3tWFK-11" value="B1" style="text;html=1;align=center;verticalAlign=middle;whiteSpace=wrap;rounded=0;" vertex="1" parent="1">
          <mxGeometry x="440" y="250" width="40" height="30" as="geometry" />
        </mxCell>
        <mxCell id="coO7UIAVYU41Q1x3tWFK-12" value="B2" style="text;html=1;align=center;verticalAlign=middle;whiteSpace=wrap;rounded=0;" vertex="1" parent="1">
          <mxGeometry x="440" y="290" width="40" height="30" as="geometry" />
        </mxCell>
        <mxCell id="coO7UIAVYU41Q1x3tWFK-13" value="B3" style="text;html=1;align=center;verticalAlign=middle;whiteSpace=wrap;rounded=0;" vertex="1" parent="1">
          <mxGeometry x="440" y="330" width="40" height="30" as="geometry" />
        </mxCell>
        <mxCell id="coO7UIAVYU41Q1x3tWFK-14" value="B4" style="text;html=1;align=center;verticalAlign=middle;whiteSpace=wrap;rounded=0;" vertex="1" parent="1">
          <mxGeometry x="440" y="370" width="40" height="30" as="geometry" />
        </mxCell>
        <mxCell id="coO7UIAVYU41Q1x3tWFK-15" value="GND" style="text;html=1;align=center;verticalAlign=middle;whiteSpace=wrap;rounded=0;" vertex="1" parent="1">
          <mxGeometry x="440" y="410" width="40" height="30" as="geometry" />
        </mxCell>
        <mxCell id="coO7UIAVYU41Q1x3tWFK-16" value="3V" style="text;html=1;align=center;verticalAlign=middle;whiteSpace=wrap;rounded=0;" vertex="1" parent="1">
          <mxGeometry x="360" y="210" width="40" height="30" as="geometry" />
        </mxCell>
        <mxCell id="coO7UIAVYU41Q1x3tWFK-17" value="A1" style="text;html=1;align=center;verticalAlign=middle;whiteSpace=wrap;rounded=0;" vertex="1" parent="1">
          <mxGeometry x="360" y="250" width="40" height="30" as="geometry" />
        </mxCell>
        <mxCell id="coO7UIAVYU41Q1x3tWFK-18" value="A2" style="text;html=1;align=center;verticalAlign=middle;whiteSpace=wrap;rounded=0;" vertex="1" parent="1">
          <mxGeometry x="360" y="290" width="40" height="30" as="geometry" />
        </mxCell>
        <mxCell id="coO7UIAVYU41Q1x3tWFK-19" value="A3" style="text;html=1;align=center;verticalAlign=middle;whiteSpace=wrap;rounded=0;" vertex="1" parent="1">
          <mxGeometry x="360" y="330" width="40" height="30" as="geometry" />
        </mxCell>
        <mxCell id="coO7UIAVYU41Q1x3tWFK-20" value="A4" style="text;html=1;align=center;verticalAlign=middle;whiteSpace=wrap;rounded=0;" vertex="1" parent="1">
          <mxGeometry x="360" y="370" width="40" height="30" as="geometry" />
        </mxCell>
        <mxCell id="coO7UIAVYU41Q1x3tWFK-21" value="OE" style="text;html=1;align=center;verticalAlign=middle;whiteSpace=wrap;rounded=0;" vertex="1" parent="1">
          <mxGeometry x="360" y="410" width="40" height="30" as="geometry" />
        </mxCell>
        <mxCell id="coO7UIAVYU41Q1x3tWFK-22" value="" style="endArrow=none;html=1;rounded=0;entryX=0;entryY=0.5;entryDx=0;entryDy=0;exitX=1;exitY=0.5;exitDx=0;exitDy=0;" edge="1" parent="1" source="coO7UIAVYU41Q1x3tWFK-15" target="coO7UIAVYU41Q1x3tWFK-4">
          <mxGeometry width="50" height="50" relative="1" as="geometry">
            <mxPoint x="400" y="370" as="sourcePoint" />
            <mxPoint x="450" y="320" as="targetPoint" />
          </mxGeometry>
        </mxCell>
        <mxCell id="coO7UIAVYU41Q1x3tWFK-23" value="" style="endArrow=none;html=1;rounded=0;entryX=0;entryY=0.5;entryDx=0;entryDy=0;exitX=1;exitY=0.5;exitDx=0;exitDy=0;" edge="1" parent="1" source="coO7UIAVYU41Q1x3tWFK-14" target="coO7UIAVYU41Q1x3tWFK-5">
          <mxGeometry width="50" height="50" relative="1" as="geometry">
            <mxPoint x="400" y="370" as="sourcePoint" />
            <mxPoint x="450" y="320" as="targetPoint" />
          </mxGeometry>
        </mxCell>
        <mxCell id="coO7UIAVYU41Q1x3tWFK-24" value="" style="endArrow=none;html=1;rounded=0;entryX=0;entryY=0.5;entryDx=0;entryDy=0;exitX=1;exitY=0.5;exitDx=0;exitDy=0;" edge="1" parent="1" source="coO7UIAVYU41Q1x3tWFK-13" target="coO7UIAVYU41Q1x3tWFK-6">
          <mxGeometry width="50" height="50" relative="1" as="geometry">
            <mxPoint x="400" y="370" as="sourcePoint" />
            <mxPoint x="450" y="320" as="targetPoint" />
          </mxGeometry>
        </mxCell>
        <mxCell id="coO7UIAVYU41Q1x3tWFK-25" value="" style="endArrow=none;html=1;rounded=0;entryX=0;entryY=0.5;entryDx=0;entryDy=0;exitX=1;exitY=0.5;exitDx=0;exitDy=0;" edge="1" parent="1" source="coO7UIAVYU41Q1x3tWFK-12" target="coO7UIAVYU41Q1x3tWFK-7">
          <mxGeometry width="50" height="50" relative="1" as="geometry">
            <mxPoint x="400" y="370" as="sourcePoint" />
            <mxPoint x="450" y="320" as="targetPoint" />
          </mxGeometry>
        </mxCell>
        <mxCell id="coO7UIAVYU41Q1x3tWFK-26" value="" style="endArrow=none;html=1;rounded=0;entryX=0;entryY=0.5;entryDx=0;entryDy=0;exitX=1;exitY=0.5;exitDx=0;exitDy=0;" edge="1" parent="1" source="coO7UIAVYU41Q1x3tWFK-11" target="coO7UIAVYU41Q1x3tWFK-7">
          <mxGeometry width="50" height="50" relative="1" as="geometry">
            <mxPoint x="400" y="370" as="sourcePoint" />
            <mxPoint x="450" y="320" as="targetPoint" />
          </mxGeometry>
        </mxCell>
        <mxCell id="coO7UIAVYU41Q1x3tWFK-27" value="" style="endArrow=none;html=1;rounded=0;entryX=0;entryY=0.5;entryDx=0;entryDy=0;exitX=1;exitY=0.5;exitDx=0;exitDy=0;" edge="1" parent="1" source="coO7UIAVYU41Q1x3tWFK-10" target="coO7UIAVYU41Q1x3tWFK-7">
          <mxGeometry width="50" height="50" relative="1" as="geometry">
            <mxPoint x="400" y="370" as="sourcePoint" />
            <mxPoint x="450" y="320" as="targetPoint" />
          </mxGeometry>
        </mxCell>
        <mxCell id="coO7UIAVYU41Q1x3tWFK-28" value="" style="rounded=0;whiteSpace=wrap;html=1;" vertex="1" parent="1">
          <mxGeometry x="160" y="160" width="120" height="320" as="geometry" />
        </mxCell>
        <mxCell id="coO7UIAVYU41Q1x3tWFK-29" value="P1-2" style="text;html=1;align=center;verticalAlign=middle;whiteSpace=wrap;rounded=0;" vertex="1" parent="1">
          <mxGeometry x="240" y="370" width="40" height="30" as="geometry" />
        </mxCell>
        <mxCell id="coO7UIAVYU41Q1x3tWFK-30" value="P1-1" style="text;html=1;align=center;verticalAlign=middle;whiteSpace=wrap;rounded=0;" vertex="1" parent="1">
          <mxGeometry x="240" y="330" width="40" height="30" as="geometry" />
        </mxCell>
        <mxCell id="coO7UIAVYU41Q1x3tWFK-31" value="" style="endArrow=none;html=1;rounded=0;exitX=0;exitY=0.5;exitDx=0;exitDy=0;entryX=1;entryY=0.5;entryDx=0;entryDy=0;" edge="1" parent="1" source="coO7UIAVYU41Q1x3tWFK-20" target="coO7UIAVYU41Q1x3tWFK-29">
          <mxGeometry width="50" height="50" relative="1" as="geometry">
            <mxPoint x="400" y="370" as="sourcePoint" />
            <mxPoint x="450" y="320" as="targetPoint" />
          </mxGeometry>
        </mxCell>
        <mxCell id="coO7UIAVYU41Q1x3tWFK-32" value="" style="endArrow=none;html=1;rounded=0;exitX=1;exitY=0.5;exitDx=0;exitDy=0;entryX=0;entryY=0.5;entryDx=0;entryDy=0;" edge="1" parent="1" source="coO7UIAVYU41Q1x3tWFK-30" target="coO7UIAVYU41Q1x3tWFK-19">
          <mxGeometry width="50" height="50" relative="1" as="geometry">
            <mxPoint x="400" y="370" as="sourcePoint" />
            <mxPoint x="450" y="320" as="targetPoint" />
          </mxGeometry>
        </mxCell>
        <mxCell id="coO7UIAVYU41Q1x3tWFK-33" value="VDD" style="text;html=1;align=center;verticalAlign=middle;whiteSpace=wrap;rounded=0;" vertex="1" parent="1">
          <mxGeometry x="240" y="210" width="40" height="30" as="geometry" />
        </mxCell>
        <mxCell id="coO7UIAVYU41Q1x3tWFK-34" value="" style="endArrow=none;html=1;rounded=0;entryX=0;entryY=0.5;entryDx=0;entryDy=0;exitX=1;exitY=0.5;exitDx=0;exitDy=0;" edge="1" parent="1" source="coO7UIAVYU41Q1x3tWFK-33" target="coO7UIAVYU41Q1x3tWFK-16">
          <mxGeometry width="50" height="50" relative="1" as="geometry">
            <mxPoint x="400" y="370" as="sourcePoint" />
            <mxPoint x="450" y="320" as="targetPoint" />
          </mxGeometry>
        </mxCell>
        <mxCell id="coO7UIAVYU41Q1x3tWFK-35" value="GND" style="text;html=1;align=center;verticalAlign=middle;whiteSpace=wrap;rounded=0;" vertex="1" parent="1">
          <mxGeometry x="200" y="450" width="40" height="30" as="geometry" />
        </mxCell>
        <mxCell id="coO7UIAVYU41Q1x3tWFK-36" value="" style="endArrow=none;html=1;rounded=0;exitX=0.5;exitY=1;exitDx=0;exitDy=0;entryX=0;entryY=0.5;entryDx=0;entryDy=0;" edge="1" parent="1" source="coO7UIAVYU41Q1x3tWFK-35" target="coO7UIAVYU41Q1x3tWFK-4">
          <mxGeometry width="50" height="50" relative="1" as="geometry">
            <mxPoint x="400" y="370" as="sourcePoint" />
            <mxPoint x="450" y="320" as="targetPoint" />
            <Array as="points">
              <mxPoint x="220" y="520" />
              <mxPoint x="480" y="520" />
            </Array>
          </mxGeometry>
        </mxCell>
        <mxCell id="coO7UIAVYU41Q1x3tWFK-37" value="nRF52840" style="text;html=1;align=center;verticalAlign=middle;whiteSpace=wrap;rounded=0;" vertex="1" parent="1">
          <mxGeometry x="160" y="160" width="120" height="30" as="geometry" />
        </mxCell>
      </root>
    </mxGraphModel>
  </diagram>
</mxfile>
